<?xml version="1.0" encoding="utf-8"?>
<!-- Generator: Adobe Illustrator 16.0.0, SVG Export Plug-In . SVG Version: 6.00 Build 0)  -->
<!DOCTYPE svg PUBLIC "-//W3C//DTD SVG 1.1//EN" "http://www.w3.org/Graphics/SVG/1.1/DTD/svg11.dtd">
<svg version="1.1" id="Layer_1" xmlns="http://www.w3.org/2000/svg" xmlns:xlink="http://www.w3.org/1999/xlink" x="0px" y="0px"
	 width="179.1px" height="179.1px" viewBox="0 0 179.1 179.1" enable-background="new 0 0 179.1 179.1" xml:space="preserve">
<g>
	<path d="M44.625,12C58.373,4,73.35,0,89.55,0s31.174,4,44.925,12c13.749,8.001,24.624,18.876,32.625,32.625
		c8,13.75,12,28.725,12,44.925s-4,31.177-12,44.925c-8.001,13.751-18.876,24.626-32.625,32.625c-13.75,8.002-28.725,12-44.925,12
		s-31.177-3.998-44.925-12C30.874,159.101,19.999,148.226,12,134.475C3.998,120.727,0,105.75,0,89.55s3.998-31.174,12-44.925
		C19.999,30.876,30.874,20.001,44.625,12z M36.6,68.4l21.15,21.15l-21.3,21.15l31.95,31.95l21.15-21.3l21.15,21.3l31.95-31.95
		l-21.3-21.15l21.3-21.15L110.7,36.6L89.55,57.75L68.4,36.45L36.6,68.4z"/>
</g>
</svg>
