<?xml version="1.0" encoding="utf-8"?>
<!-- Generator: Adobe Illustrator 16.0.0, SVG Export Plug-In . SVG Version: 6.00 Build 0)  -->
<!DOCTYPE svg PUBLIC "-//W3C//DTD SVG 1.1//EN" "http://www.w3.org/Graphics/SVG/1.1/DTD/svg11.dtd">
<svg version="1.1" id="Layer_1" xmlns="http://www.w3.org/2000/svg" xmlns:xlink="http://www.w3.org/1999/xlink" x="0px" y="0px"
	 width="179.1px" height="179.1px" viewBox="0 0 179.1 179.1" enable-background="new 0 0 179.1 179.1" xml:space="preserve">
<g>
	<path fill="#FFA500" d="M44.625,12C58.373,4,73.35,0,89.55,0s31.174,4,44.925,12c13.749,8.001,24.624,18.876,32.625,32.625
		c8,13.75,12,28.725,12,44.925s-4,31.177-12,44.925c-8.001,13.751-18.876,24.626-32.625,32.625c-13.75,8.002-28.725,12-44.925,12
		s-31.177-3.998-44.925-12C30.874,159.101,19.999,148.226,12,134.475C3.998,120.727,0,105.75,0,89.55s3.998-31.174,12-44.925
		C19.999,30.876,30.874,20.001,44.625,12z M74.55,104.55h30c0.499-0.3,1.2-0.698,2.1-1.2c0.9-0.499,2.476-1.773,4.726-3.825
		c2.25-2.048,4.223-4.323,5.925-6.824c1.699-2.499,3.249-5.948,4.65-10.351c1.398-4.398,2.1-9.098,2.1-14.1
		c0-5.101-0.876-9.549-2.625-13.351c-1.751-3.799-3.851-6.698-6.3-8.699c-2.452-1.999-5.377-3.601-8.775-4.801
		c-3.399-1.199-6.326-1.949-8.774-2.25c-2.452-0.3-5.025-0.449-7.726-0.449c-10.5,0-19.102,2.801-25.8,8.399
		C57.349,52.701,54,61.852,54,74.55h21.6c0.398,0,0.976,0.052,1.726,0.15c0.75,0.101,1.298,0.149,1.649,0.149
		c0.351,0,0.675-0.149,0.976-0.45c0.3-0.3,0.449-0.75,0.449-1.35s0.05-1.148,0.15-1.65c0.099-0.5,0.274-0.923,0.525-1.274
		c0.249-0.351,0.424-0.649,0.524-0.9c0.1-0.248,0.375-0.45,0.825-0.6c0.45-0.15,0.773-0.274,0.975-0.375
		c0.199-0.1,0.649-0.174,1.351-0.226c0.697-0.049,1.147-0.074,1.35-0.074c0.199,0,0.773,0,1.726,0c0.948,0,1.574,0,1.875,0
		c1.897,0,3.397,0.501,4.5,1.5c1.099,1.001,1.649,2.302,1.649,3.899c0,2.201-0.201,3.601-0.6,4.2c-0.401,0.6-1.751,1.702-4.05,3.3
		c-0.501,0.102-1.125,0.251-1.875,0.45c-0.75,0.202-2.101,0.876-4.051,2.025c-1.949,1.15-3.651,2.501-5.1,4.05
		c-1.451,1.551-2.775,3.851-3.975,6.899C75,97.326,74.449,100.75,74.55,104.55z M74.55,119.55v15h30v-15H74.55z"/>
</g>
</svg>
